<svg xmlns="http://www.w3.org/2000/svg" width="1000" height="210" viewBox="0 0 1000 210" font-family="-apple-system, BlinkMacSystemFont, 'Segoe UI', Helvetica, Arial, sans-serif">
  <defs>
    <linearGradient id="g" x1="0" y1="0" x2="1" y2="1">
      <stop offset="0" stop-color="#2a78d6"/><stop offset=".5" stop-color="#1baf7a"/><stop offset="1" stop-color="#eb6834"/>
    </linearGradient>
    <filter id="s" x="-20%" y="-20%" width="140%" height="140%"><feDropShadow dx="0" dy="6" stdDeviation="8" flood-color="#2a78d6" flood-opacity="0.35"/></filter>
  </defs>
  <g transform="translate(70 30)" filter="url(#s)">
    <path d="M90 0 165 43v87L90 173 15 130V43z" fill="url(#g)"/>
    <path d="M57 90l22 22 44-50" fill="none" stroke="#fff" stroke-width="14" stroke-linecap="round" stroke-linejoin="round"/>
  </g>
  <text x="298" y="92" font-size="56" font-weight="800" letter-spacing="-1.5" fill="#f5f7fb">migration-control</text>
  <text x="300" y="128" font-size="20" fill="#a9b1c3">Version, CVE &amp; upgrade migrations — run by Claude, approved by you.</text>
  <rect x="300" y="150" rx="14" width="73" height="30" fill="#1c2230"/><text x="337" y="170" text-anchor="middle" font-size="15" fill="#c9d3e6">🔭 scan</text><rect x="383.2" y="150" rx="14" width="82" height="30" fill="#1c2230"/><text x="424" y="170" text-anchor="middle" font-size="15" fill="#c9d3e6">🎯 grade</text><rect x="475.59999999999997" y="150" rx="14" width="82" height="30" fill="#1c2230"/><text x="517" y="170" text-anchor="middle" font-size="15" fill="#c9d3e6">🗺️ plan</text><rect x="568.0" y="150" rx="14" width="55" height="30" fill="#1c2230"/><text x="595" y="170" text-anchor="middle" font-size="15" fill="#c9d3e6">🔀 PR</text><rect x="632.8" y="150" rx="14" width="138" height="30" fill="#1c2230"/><text x="702" y="170" text-anchor="middle" font-size="15" fill="#c9d3e6">✋ you approve</text>
</svg>
